<svg width="20" height="20" fill="none" xmlns="http://www.w3.org/2000/svg"><g clip-path="url(#a)"><g filter="url(#b)" fill-rule="evenodd" clip-rule="evenodd"><path d="M8.38 4.97c.52-.5.79-.74.79-1.06 0-.31-.25-.57-.76-1.08l-.26-.26c-.48-.48-.72-.72-1.02-.72-.3 0-.55.22-1.05.69L3.31 5.12c-.51.48-.99 1-1.42 1.56a8.12 8.12 0 0 0 11.39 11.39c.56-.44 1.08-.91 1.56-1.43l2.58-2.77c.46-.5.7-.74.69-1.04 0-.3-.25-.54-.73-1.02l-.26-.26c-.5-.51-.76-.77-1.08-.76-.31 0-.56.26-1.05.79l-1.97 2.08-.5.53a4.78 4.78 0 1 1-6.75-6.76l.53-.5 2.08-1.96Z" fill="url(#c)"/><path d="M8.38 4.97c.52-.5.79-.74.79-1.06 0-.31-.25-.57-.76-1.08l-.26-.26c-.48-.48-.72-.72-1.02-.72-.3 0-.55.22-1.05.69L3.31 5.12c-.51.48-.99 1-1.42 1.56a8.12 8.12 0 0 0 11.39 11.39c.56-.44 1.08-.91 1.56-1.43l2.58-2.77c.46-.5.7-.74.69-1.04 0-.3-.25-.54-.73-1.02l-.26-.26c-.5-.51-.76-.77-1.08-.76-.31 0-.56.26-1.05.79l-1.97 2.08-.5.53a4.78 4.78 0 1 1-6.75-6.76l.53-.5 2.08-1.96Z" fill="#701328"/></g><g filter="url(#d)"><path fill-rule="evenodd" clip-rule="evenodd" d="M9.88 3.7c.52-.5.79-.75.79-1.06 0-.32-.25-.57-.76-1.08l-.33-.33C9.1.75 8.86.5 8.56.5c-.3 0-.55.23-1.05.7L4.73 3.77c-.5.48-.97 1-1.4 1.54a8.12 8.12 0 0 0 11.4 11.39c.54-.42 1.06-.9 1.53-1.4l2.6-2.78c.45-.5.69-.75.68-1.05 0-.3-.25-.54-.73-1.02l-.41-.42c-.51-.5-.77-.76-1.08-.75-.32 0-.56.26-1.06.79l-1.96 2.08-.61.65a4.62 4.62 0 1 1-6.54-6.54l.65-.61 2.08-1.97Z" fill="url(#e)"/></g><path d="m9.41 1 .76.75c.3.3.45.45.5.63.05.15.05.31 0 .46-.06.18-.22.32-.53.62l-.65.6-2.44-2.44.7-.65c.3-.28.44-.42.61-.47.15-.05.3-.04.45 0 .17.06.31.2.6.5Z" fill="url(#f)"/><path d="m19.05 10.63-.83-.83c-.3-.3-.46-.46-.63-.51a.74.74 0 0 0-.47 0c-.17.06-.32.22-.6.53l-.62.64L18.42 13l.65-.7c.28-.3.42-.45.47-.61a.74.74 0 0 0 0-.46c-.06-.16-.2-.3-.5-.6Z" fill="url(#g)"/><g filter="url(#h)"><path d="M14.15.19c.01-.06.04-.1.09-.14.04-.03.1-.05.15-.05h2c.03 0 .07.01.1.03.04.02.07.04.1.08a.27.27 0 0 1 .03.23l-.89 2.78h1.9c.05 0 .1.02.14.04.04.03.07.07.09.11a.27.27 0 0 1-.03.28l-3.5 4.68a.24.24 0 0 1-.31.07.26.26 0 0 1-.12-.13.27.27 0 0 1 0-.17l.9-3.05h-1.66a.24.24 0 0 1-.2-.1.27.27 0 0 1-.04-.24L14.15.2Z" fill="url(#i)"/></g></g><defs><linearGradient id="c" x1="12.79" y1="7.21" x2="2.63" y2="17.37" gradientUnits="userSpaceOnUse"><stop stop-color="#FF2C5C"/><stop offset="1" stop-color="#FF2C5C"/></linearGradient><linearGradient id="e" x1="14.22" y1="5.87" x2="4.06" y2="16.03" gradientUnits="userSpaceOnUse"><stop stop-color="#FF2C5C"/><stop offset="1" stop-color="#FF2055"/></linearGradient><linearGradient id="f" x1="9.79" y1="1.4" x2="8.31" y2="2.87" gradientUnits="userSpaceOnUse"><stop stop-color="#FFFDFD"/><stop offset="1" stop-color="#B5B5B5"/></linearGradient><linearGradient id="g" x1="18.61" y1="10.22" x2="17.13" y2="11.7" gradientUnits="userSpaceOnUse"><stop stop-color="#FFFDFD"/><stop offset="1" stop-color="#B5B5B5"/></linearGradient><linearGradient id="i" x1="15.39" y1="0" x2="15.39" y2="9.47" gradientUnits="userSpaceOnUse"><stop stop-color="#FFF50A"/><stop offset=".76" stop-color="#FFC71D"/><stop offset=".88" stop-color="#F6B102"/><stop offset="1" stop-color="#FBECB8"/></linearGradient><filter id="b" x=".22" y="1.1" width="17.89" height="18.63" filterUnits="userSpaceOnUse" color-interpolation-filters="sRGB"><feFlood flood-opacity="0" result="BackgroundImageFix"/><feBlend in="SourceGraphic" in2="BackgroundImageFix" result="shape"/><feColorMatrix in="SourceAlpha" values="0 0 0 0 0 0 0 0 0 0 0 0 0 0 0 0 0 0 127 0" result="hardAlpha"/><feOffset dy="-.74"/><feGaussianBlur stdDeviation=".74"/><feComposite in2="hardAlpha" operator="arithmetic" k2="-1" k3="1"/><feColorMatrix values="0 0 0 0 0 0 0 0 0 0 0 0 0 0 0 0 0 0 0.46 0"/><feBlend in2="shape" result="effect1_innerShadow_4857_20032"/></filter><filter id="d" x="1.66" y=".35" width="18.05" height="18.03" filterUnits="userSpaceOnUse" color-interpolation-filters="sRGB"><feFlood flood-opacity="0" result="BackgroundImageFix"/><feBlend in="SourceGraphic" in2="BackgroundImageFix" result="shape"/><feColorMatrix in="SourceAlpha" values="0 0 0 0 0 0 0 0 0 0 0 0 0 0 0 0 0 0 127 0" result="hardAlpha"/><feOffset dx=".17" dy="-.15"/><feGaussianBlur stdDeviation=".21"/><feComposite in2="hardAlpha" operator="arithmetic" k2="-1" k3="1"/><feColorMatrix values="0 0 0 0 0.439216 0 0 0 0 0.0745098 0 0 0 0 0.156863 0 0 0 1 0"/><feBlend in2="shape" result="effect1_innerShadow_4857_20032"/></filter><filter id="h" x="12.89" y="-.83" width="5" height="9.17" filterUnits="userSpaceOnUse" color-interpolation-filters="sRGB"><feFlood flood-opacity="0" result="BackgroundImageFix"/><feBlend in="SourceGraphic" in2="BackgroundImageFix" result="shape"/><feColorMatrix in="SourceAlpha" values="0 0 0 0 0 0 0 0 0 0 0 0 0 0 0 0 0 0 127 0" result="hardAlpha"/><feOffset dy="-.08"/><feGaussianBlur stdDeviation=".13"/><feComposite in2="hardAlpha" operator="arithmetic" k2="-1" k3="1"/><feColorMatrix values="0 0 0 0 0.704167 0 0 0 0 0.338 0 0 0 0 0 0 0 0 1 0"/><feBlend in2="shape" result="effect1_innerShadow_4857_20032"/><feColorMatrix in="SourceAlpha" values="0 0 0 0 0 0 0 0 0 0 0 0 0 0 0 0 0 0 127 0" result="hardAlpha"/><feOffset dy="-.83"/><feGaussianBlur stdDeviation=".42"/><feComposite in2="hardAlpha" operator="arithmetic" k2="-1" k3="1"/><feColorMatrix values="0 0 0 0 0.9375 0 0 0 0 0.3425 0 0 0 0 0.0078125 0 0 0 1 0"/><feBlend in2="effect1_innerShadow_4857_20032" result="effect2_innerShadow_4857_20032"/></filter><clipPath id="a"><path fill="#fff" d="M0 0h20v20H0z"/></clipPath></defs></svg>