<svg xmlns="http://www.w3.org/2000/svg" width="16" height="10" fill="none"><path fill="#767B85" fill-rule="evenodd" d="M6.42.023c-.326.038-2.84 0-3.4 0H1.251A1.254 1.254 0 0 0 0 1.275v1.937c0 .208.167.378.375.381A1.413 1.413 0 0 1 1.758 5c0 .763-.62 1.394-1.383 1.407A.381.381 0 0 0 0 6.788v1.937a1.254 1.254 0 0 0 1.252 1.252h13.496A1.254 1.254 0 0 0 16 8.725V6.788a.382.382 0 0 0-.375-.381A1.413 1.413 0 0 1 14.242 5c0-.763.62-1.394 1.383-1.407A.382.382 0 0 0 16 3.212V1.275A1.254 1.254 0 0 0 14.748.023H6.42Zm8.817 8.702V7.13a2.157 2.157 0 0 1-1.135-.609A2.157 2.157 0 0 1 13.48 5a2.157 2.157 0 0 1 .623-1.522 2.157 2.157 0 0 1 1.135-.609V1.275a.49.49 0 0 0-.49-.49h-2.365v4.646a.381.381 0 1 1-.763 0V.786H1.252a.49.49 0 0 0-.49.49v1.593c.432.083.828.295 1.136.609.402.408.623.949.623 1.522a2.157 2.157 0 0 1-.623 1.522 2.157 2.157 0 0 1-1.135.609v1.594a.49.49 0 0 0 .49.49h10.366v-.716a.381.381 0 1 1 .763 0v.715h2.366a.49.49 0 0 0 .49-.49Z" clip-rule="evenodd"/></svg>