<svg width="20" height="20" fill="none" xmlns="http://www.w3.org/2000/svg"><path d="M13.1 18.33H15l-4.17-6.25H10v1.67l2.82 4.43c.06.1.17.15.28.15Z" fill="url(#a)"/><path d="M13.1 18.33H15l-4.17-6.25H10v1.67l2.82 4.43c.06.1.17.15.28.15Z" fill="#000" fill-opacity=".2"/><path d="M13.1 18.33H15l-4.17-6.25H10v1.67l2.82 4.43c.06.1.17.15.28.15Z" fill="url(#b)"/><path d="m8.75 10-5.42 8.33H1.47a.33.33 0 0 1-.27-.52L6.67 10h2.08Z" fill="url(#c)"/><path d="m8.75 10-5.42 8.33H1.47a.33.33 0 0 1-.27-.52L6.67 10h2.08Z" fill="#000" fill-opacity=".2"/><path d="m8.75 10-5.42 8.33H1.47a.33.33 0 0 1-.27-.52L6.67 10h2.08Z" fill="url(#d)"/><path d="M13.1 1.67H15l-3.65 6.08a.33.33 0 0 1-.29.17h-.73a.33.33 0 0 1-.33-.34V6.35c0-.07.02-.13.05-.18l2.77-4.35c.06-.1.17-.15.28-.15Z" fill="url(#e)"/><path d="M13.1 1.67H15l-3.65 6.08a.33.33 0 0 1-.29.17h-.73a.33.33 0 0 1-.33-.34V6.35c0-.07.02-.13.05-.18l2.77-4.35c.06-.1.17-.15.28-.15Z" fill="#000" fill-opacity=".2"/><path d="M13.1 1.67H15l-3.65 6.08a.33.33 0 0 1-.29.17h-.73a.33.33 0 0 1-.33-.34V6.35c0-.07.02-.13.05-.18l2.77-4.35c.06-.1.17-.15.28-.15Z" fill="url(#f)"/><path d="M1.2 2.2 6.67 10h2.5L3.33 1.67H1.47c-.27 0-.42.3-.27.52Z" fill="url(#g)"/><path d="M1.2 2.2 6.67 10h2.5L3.33 1.67H1.47c-.27 0-.42.3-.27.52Z" fill="#000" fill-opacity=".2"/><path d="M1.2 2.2 6.67 10h2.5L3.33 1.67H1.47c-.27 0-.42.3-.27.52Z" fill="url(#h)"/><g filter="url(#i)"><path d="M7.03 1.67c.12 0 .22.06.28.15l3.25 5.2c.13.22.44.22.57 0l3.25-5.2c.06-.1.17-.15.28-.15h3.73c.27 0 .43.3.28.52l-5.13 7.55a.33.33 0 0 0 0 .38l5.27 7.7c.15.21 0 .51-.28.51h-3.76a.33.33 0 0 1-.29-.15l-3.35-5.33a.33.33 0 0 0-.57 0l-3.35 5.33a.33.33 0 0 1-.28.15h-3.8a.33.33 0 0 1-.27-.52l5.27-7.7a.33.33 0 0 0 0-.37L3 2.2a.33.33 0 0 1 .28-.52h3.75Z" fill="url(#j)"/></g><defs><linearGradient id="a" x1="10.42" y1="12.92" x2="13.75" y2="18.33" gradientUnits="userSpaceOnUse"><stop stop-color="#FC6A01"/><stop offset="1" stop-color="#FCC501"/></linearGradient><linearGradient id="b" x1="12.42" y1="14.97" x2="11.57" y2="15.51" gradientUnits="userSpaceOnUse"><stop stop-color="#FCFA16"/><stop offset="1" stop-color="#FDAB03" stop-opacity="0"/></linearGradient><linearGradient id="c" x1="6.63" y1="10.55" x2="1.23" y2="17.26" gradientUnits="userSpaceOnUse"><stop stop-color="#FC8801"/><stop offset="1" stop-color="#FCC501"/></linearGradient><linearGradient id="d" x1="5.73" y1="13.69" x2="4.69" y2="12.96" gradientUnits="userSpaceOnUse"><stop stop-color="#FCFA17"/><stop offset="1" stop-color="#FDAB03" stop-opacity="0"/></linearGradient><linearGradient id="e" x1="13.75" y1="1.67" x2="10.42" y2="7.08" gradientUnits="userSpaceOnUse"><stop stop-color="#FC6A01"/><stop offset="1" stop-color="#FCC501"/></linearGradient><linearGradient id="f" x1="12.75" y1="4.48" x2="11.8" y2="3.85" gradientUnits="userSpaceOnUse"><stop stop-color="#FFE715"/><stop offset="1" stop-color="#FDAB03" stop-opacity="0"/></linearGradient><linearGradient id="g" x1="1.53" y1="2.78" x2="5.47" y2="10.79" gradientUnits="userSpaceOnUse"><stop stop-color="#D23F00"/><stop offset="1" stop-color="#FCC501"/></linearGradient><linearGradient id="h" x1="5.29" y1="5.5" x2="4.22" y2="6.31" gradientUnits="userSpaceOnUse"><stop stop-color="#FFE715"/><stop offset="1" stop-color="#FDAB03" stop-opacity="0"/></linearGradient><linearGradient id="j" x1="10.83" y1="1.67" x2="10.83" y2="18.33" gradientUnits="userSpaceOnUse"><stop stop-color="#FFE500"/><stop offset="1" stop-color="#FAFF00"/></linearGradient><filter id="i" x="2.38" y="1.67" width="16.49" height="16.67" filterUnits="userSpaceOnUse" color-interpolation-filters="sRGB"><feFlood flood-opacity="0" result="BackgroundImageFix"/><feBlend in="SourceGraphic" in2="BackgroundImageFix" result="shape"/><feColorMatrix in="SourceAlpha" values="0 0 0 0 0 0 0 0 0 0 0 0 0 0 0 0 0 0 127 0" result="hardAlpha"/><feOffset dx="-.42"/><feGaussianBlur stdDeviation=".42"/><feComposite in2="hardAlpha" operator="arithmetic" k2="-1" k3="1"/><feColorMatrix values="0 0 0 0 1 0 0 0 0 1 0 0 0 0 1 0 0 0 0.75 0"/><feBlend in2="shape" result="effect1_innerShadow_4857_20009"/></filter></defs></svg>