<svg xmlns="http://www.w3.org/2000/svg" xmlns:xlink="http://www.w3.org/1999/xlink" width="140" height="46"><defs><rect id="a" width="140" height="46" x="6" rx="23"/></defs><g fill="none" fill-rule="evenodd" transform="translate(-6)"><mask id="b" fill="#fff"><use xlink:href="#a"/></mask><use fill="#3023AE" xlink:href="#a"/><g fill="#000" fill-rule="nonzero" mask="url(#b)" opacity=".2"><path d="M142.436 14.85a1.866 1.866 0 0 0-1.506-1.297l-4.94-.734-2.21-4.576a1.85 1.85 0 0 0-1.672-1.063 1.85 1.85 0 0 0-1.673 1.063l-2.21 4.576-4.94.734a1.866 1.866 0 0 0-1.506 1.298 1.925 1.925 0 0 0 .472 1.955l3.575 3.561-.844 5.03c-.12.72.164 1.435.743 1.865.327.243.71.366 1.094.366.297 0 .595-.073.87-.22l4.419-2.375 4.418 2.374a1.82 1.82 0 0 0 1.965-.145c.579-.43.863-1.144.742-1.865l-.844-5.03 3.575-3.561c.512-.51.693-1.26.472-1.955zm-5.627 4.06c-.44.438-.64 1.069-.537 1.688l.779 4.638-4.075-2.19a1.832 1.832 0 0 0-1.737 0l-4.074 2.19.778-4.638a1.933 1.933 0 0 0-.537-1.688l-3.296-3.285 4.556-.677a1.869 1.869 0 0 0 1.404-1.043l2.038-4.22 2.037 4.22c.272.563.797.953 1.405 1.043l4.556.677-3.297 3.285zm-11.15 11.188a1.475 1.475 0 0 0-1.19-1.026l-2.267-.337-1.014-2.1a1.463 1.463 0 0 0-1.322-.84c-.565 0-1.072.323-1.322.84l-1.014 2.1-2.266.337a1.475 1.475 0 0 0-1.19 1.026 1.521 1.521 0 0 0 .372 1.545l1.64 1.634-.387 2.307c-.095.57.13 1.135.587 1.475a1.44 1.44 0 0 0 1.553.114l2.027-1.09 2.027 1.09c.218.117.453.175.688.175.304 0 .607-.098.865-.29.458-.34.682-.904.587-1.474l-.388-2.307 1.64-1.634a1.52 1.52 0 0 0 .374-1.545zm-3.74 1.868a1.528 1.528 0 0 0-.425 1.334l.222 1.325-1.164-.626a1.448 1.448 0 0 0-1.372 0l-1.164.626.222-1.325a1.528 1.528 0 0 0-.424-1.334l-.942-.939 1.302-.193c.48-.071.895-.38 1.11-.825l.582-1.205.582 1.206c.215.445.63.753 1.11.824l1.302.193-.942.939zm28.215-1.868a1.475 1.475 0 0 0-1.19-1.026l-2.266-.337-1.014-2.1a1.463 1.463 0 0 0-1.322-.84c-.566 0-1.073.323-1.323.84l-1.013 2.1-2.267.337a1.475 1.475 0 0 0-1.19 1.026 1.521 1.521 0 0 0 .373 1.545l1.64 1.634-.387 2.307c-.096.57.129 1.135.586 1.475a1.44 1.44 0 0 0 1.553.114l2.027-1.09 2.028 1.09c.217.117.453.175.687.175.305 0 .607-.098.866-.29.457-.34.682-.904.586-1.474l-.387-2.307 1.64-1.634a1.52 1.52 0 0 0 .373-1.545zm-3.74 1.868a1.528 1.528 0 0 0-.424 1.334l.222 1.325-1.164-.626a1.448 1.448 0 0 0-1.372 0l-1.165.626.223-1.325a1.528 1.528 0 0 0-.424-1.334l-.942-.939 1.301-.193c.48-.071.896-.38 1.11-.825l.583-1.205.582 1.205c.214.445.63.754 1.11.825l1.302.193-.942.939z"/></g><g fill="#000" fill-rule="nonzero" mask="url(#b)" opacity=".2"><path d="M28.436 14.85a1.866 1.866 0 0 0-1.506-1.297l-4.94-.734-2.21-4.576a1.85 1.85 0 0 0-1.672-1.063 1.85 1.85 0 0 0-1.673 1.063l-2.21 4.576-4.94.734A1.866 1.866 0 0 0 7.78 14.85a1.925 1.925 0 0 0 .472 1.955l3.575 3.561-.844 5.03c-.12.72.164 1.435.743 1.865.327.243.71.366 1.094.366.297 0 .595-.073.87-.22l4.419-2.375 4.418 2.374a1.82 1.82 0 0 0 1.965-.145c.579-.43.863-1.144.742-1.865l-.844-5.03 3.575-3.561c.512-.51.693-1.26.472-1.955zm-5.627 4.06c-.44.438-.64 1.069-.537 1.688l.779 4.638-4.075-2.19a1.832 1.832 0 0 0-1.737 0l-4.074 2.19.778-4.638a1.933 1.933 0 0 0-.537-1.688l-3.296-3.285 4.556-.677a1.869 1.869 0 0 0 1.404-1.043l2.038-4.22 2.037 4.22c.272.563.797.953 1.405 1.043l4.556.677-3.297 3.285zm-11.15 11.188a1.475 1.475 0 0 0-1.19-1.026l-2.267-.337-1.014-2.1a1.463 1.463 0 0 0-1.322-.84c-.565 0-1.072.323-1.322.84l-1.014 2.1-2.266.337a1.475 1.475 0 0 0-1.19 1.026 1.521 1.521 0 0 0 .372 1.545l1.64 1.634-.387 2.307c-.095.57.13 1.135.587 1.475a1.44 1.44 0 0 0 1.553.114l2.027-1.09 2.027 1.09c.218.117.453.175.688.175.304 0 .607-.098.865-.29.458-.34.682-.904.587-1.474l-.388-2.307 1.64-1.634a1.52 1.52 0 0 0 .374-1.545zm-3.74 1.868a1.528 1.528 0 0 0-.425 1.334l.222 1.325-1.164-.626a1.448 1.448 0 0 0-1.372 0l-1.164.626.222-1.325a1.528 1.528 0 0 0-.424-1.334l-.942-.939 1.302-.193c.48-.071.895-.38 1.11-.825l.582-1.205.582 1.206c.215.445.63.753 1.11.824l1.302.193-.942.939zm28.215-1.868a1.475 1.475 0 0 0-1.19-1.026l-2.266-.337-1.014-2.1a1.463 1.463 0 0 0-1.322-.84c-.566 0-1.073.323-1.323.84l-1.013 2.1-2.267.337a1.475 1.475 0 0 0-1.19 1.026 1.521 1.521 0 0 0 .373 1.545l1.64 1.634-.387 2.307c-.096.57.129 1.135.586 1.475a1.44 1.44 0 0 0 1.553.114l2.027-1.09 2.028 1.09c.217.117.453.175.687.175.305 0 .607-.098.866-.29.457-.34.682-.904.586-1.474l-.387-2.307 1.64-1.634a1.52 1.52 0 0 0 .373-1.545zm-3.74 1.868a1.528 1.528 0 0 0-.424 1.334l.222 1.325-1.164-.626a1.448 1.448 0 0 0-1.372 0l-1.165.626.223-1.325a1.528 1.528 0 0 0-.424-1.334l-.942-.939 1.301-.193c.48-.071.896-.38 1.11-.825l.583-1.205.582 1.205c.214.445.63.754 1.11.825l1.302.193-.942.939z"/></g></g></svg>
