<svg width="25" height="24" fill="none" xmlns="http://www.w3.org/2000/svg"><g clip-path="url(#a)"><path d="M11.078 18.162c-.342 0-.595-.143-.834-.437l-3.54-4.43c-.172-.212-.247-.41-.247-.615 0-.472.349-.814.827-.814.301 0 .506.11.704.376l3.063 3.93 5.94-9.433c.205-.321.404-.437.739-.437.478 0 .806.328.806.8 0 .184-.055.376-.198.594l-6.426 10.022a.948.948 0 0 1-.834.444Z" fill="#E0E0E0"/></g><defs><clipPath id="a"><path fill="#fff" transform="translate(.5)" d="M0 0h24v24H0z"/></clipPath></defs></svg>