<svg width="24" height="24" fill="none" xmlns="http://www.w3.org/2000/svg"><path d="M12 19.0371c-3.8076 0-6.9727-3.165-6.9727-6.9726 0-3.8145 3.1582-6.9727 6.9659-6.9727 3.8144 0 6.9795 3.1582 6.9795 6.9727 0 3.8076-3.1582 6.9726-6.9727 6.9726Zm0-1.1621c3.2266 0 5.8105-2.584 5.8105-5.8105 0-3.2266-2.5908-5.8106-5.8173-5.8106-3.2266 0-5.797 2.584-5.797 5.8106 0 3.2265 2.5772 5.8105 5.8038 5.8105Zm-2.789-5.749c0-1.9004.998-3.1514 2.5429-3.2608l.1299-.5127c.0478-.1845.1777-.2666.3418-.2666.2051 0 .3349.1368.3349.335 0 .0479-.0068.1025-.0273.1504l-.0752.3213c.2119.041.4102.0957.5879.1777l.1914-.7178c.0479-.1845.1777-.2666.3418-.2666.2051 0 .335.1368.335.335a.4137.4137 0 0 1-.0274.1504l-.2187.875c.2871.246.5127.5605.6425.9228.0411.1094.0684.2256.0684.335 0 .2598-.1641.4238-.417.4238-.2392 0-.3418-.164-.4101-.3281-.0342-.123-.0889-.2256-.1504-.2871l-1.0323 4.04c.6016-.0888 1.0459-.4922 1.1963-1.0322.0684-.2051.2051-.3691.4375-.3691.2598 0 .4239.1845.4239.4306 0 .1162-.0274.2393-.0684.3487-.3008.8545-1.1006 1.4287-2.208 1.4834l-.1572.622c-.0479.1846-.1778.2666-.3418.2666-.2051 0-.335-.1367-.335-.3418 0-.0478.0068-.0888.0274-.1435l.1093-.4444c-.2119-.0341-.4101-.0957-.6015-.1777l-.212.8408c-.0478.1846-.1708.2666-.3417.2666-.1983 0-.3282-.1367-.3282-.3418a.6102.6102 0 0 1 .0205-.1504l.253-.9912c-.6563-.5673-1.0323-1.497-1.0323-2.6933Zm1.8525 2.2217c.1777.1162.3691.1914.5947.2255l1.1826-4.662c-.1777-.1026-.376-.1778-.5879-.2051l-1.1894 4.6416Zm-.9365-2.2217c0 .6562.1367 1.1963.3896 1.6064l1.0117-3.9853c-.875.2187-1.4013 1.1074-1.4013 2.3789Z" fill="#FFDE5C"/></svg>
