<svg width="24" height="24" fill="none" xmlns="http://www.w3.org/2000/svg"><g filter="url(#a)"><circle cx="12" cy="12" r="12" fill="url(#b)"/></g><g filter="url(#c)"><circle cx="11.9998" cy="12.0001" r="9.8182" fill="#F39200"/><circle cx="11.9998" cy="12.0001" r="9.8182" fill="url(#d)" fill-opacity=".5"/><circle cx="11.9998" cy="12.0001" r="9.8182" fill="url(#e)"/></g><g filter="url(#f)"><path d="M15.4254 15.5308a.5758.5758 0 0 1 .5759.5759v.8374a.576.576 0 0 1-.5759.5759H8.804a.576.576 0 0 1-.576-.5759v-.8771a.5757.5757 0 0 1 .1587-.3969l3.422-3.5974c.3162-.3621.5712-.686.765-.9716.1939-.2907.3341-.5534.4208-.788.0918-.2347.1378-.4463.1378-.635 0-.3214-.0485-.5891-.1454-.8034-.0918-.2193-.2295-.385-.4132-.4973-.1785-.1122-.4004-.1683-.6656-.1683s-.4973.0765-.6962.2296c-.1989.153-.3545.362-.4667.6273a2.0901 2.0901 0 0 0-.1005.3235c-.0699.3103-.318.5716-.6361.5716H8.5744c-.318 0-.581-.2592-.5349-.574.0678-.4632.22-.8967.4563-1.3004.3367-.5661.8034-1.0175 1.4001-1.3541.5968-.3418 1.2879-.5126 2.0734-.5126.8212 0 1.5098.1275 2.0658.3825.5559.255.9742.6248 1.2547 1.1094.2856.4794.4284 1.0583.4284 1.7366 0 .3877-.0612.76-.1836 1.117-.1224.3571-.2984.7115-.5279 1.0635-.2295.3468-.51.7038-.8416 1.0711-.3264.3672-.6988.7574-1.117 1.1705l-1.0255 1.1837c-.1616.1865-.0291.4765.2176.4765h3.1852Z" fill="#372F33"/></g><defs><linearGradient id="b" x1="12" y1="0" x2="12" y2="24" gradientUnits="userSpaceOnUse"><stop stop-color="#E5E5E5"/><stop offset=".7552" stop-color="#A9A9A9"/><stop offset="1" stop-color="#878787"/></linearGradient><linearGradient id="d" x1="11.9998" y1="2.1819" x2="11.9998" y2="24.4959" gradientUnits="userSpaceOnUse"><stop stop-color="#FFF50A"/><stop offset=".7552" stop-color="#FFC71D"/><stop offset=".8802" stop-color="#F6B102"/><stop offset="1" stop-color="#FBECB8"/></linearGradient><linearGradient id="e" x1="11.9998" y1="2.1819" x2="11.9998" y2="21.8182" gradientUnits="userSpaceOnUse"><stop stop-color="#E5E5E5"/><stop offset=".7552" stop-color="#A9A9A9"/><stop offset="1" stop-color="#878787"/></linearGradient><filter id="a" x="0" y="-.2182" width="24" height="24.6545" filterUnits="userSpaceOnUse" color-interpolation-filters="sRGB"><feFlood flood-opacity="0" result="BackgroundImageFix"/><feBlend in="SourceGraphic" in2="BackgroundImageFix" result="shape"/><feColorMatrix in="SourceAlpha" values="0 0 0 0 0 0 0 0 0 0 0 0 0 0 0 0 0 0 127 0" result="hardAlpha"/><feOffset dy="-.2182"/><feGaussianBlur stdDeviation=".3273"/><feComposite in2="hardAlpha" operator="arithmetic" k2="-1" k3="1"/><feColorMatrix values="0 0 0 0 0.190251 0 0 0 0 0.190251 0 0 0 0 0.190251 0 0 0 1 0"/><feBlend in2="shape" result="effect1_innerShadow_1342_14575"/><feColorMatrix in="SourceAlpha" values="0 0 0 0 0 0 0 0 0 0 0 0 0 0 0 0 0 0 127 0" result="hardAlpha"/><feOffset dy=".4364"/><feGaussianBlur stdDeviation=".2182"/><feComposite in2="hardAlpha" operator="arithmetic" k2="-1" k3="1"/><feColorMatrix values="0 0 0 0 1 0 0 0 0 1 0 0 0 0 1 0 0 0 1 0"/><feBlend in2="effect1_innerShadow_1342_14575" result="effect2_innerShadow_1342_14575"/></filter><filter id="c" x="1.9635" y="2.1819" width="20.0728" height="20.0727" filterUnits="userSpaceOnUse" color-interpolation-filters="sRGB"><feFlood flood-opacity="0" result="BackgroundImageFix"/><feColorMatrix in="SourceAlpha" values="0 0 0 0 0 0 0 0 0 0 0 0 0 0 0 0 0 0 127 0" result="hardAlpha"/><feOffset dy=".2182"/><feGaussianBlur stdDeviation=".1091"/><feComposite in2="hardAlpha" operator="out"/><feColorMatrix values="0 0 0 0 1 0 0 0 0 1 0 0 0 0 1 0 0 0 1 0"/><feBlend in2="BackgroundImageFix" result="effect1_dropShadow_1342_14575"/><feBlend in="SourceGraphic" in2="effect1_dropShadow_1342_14575" result="shape"/><feColorMatrix in="SourceAlpha" values="0 0 0 0 0 0 0 0 0 0 0 0 0 0 0 0 0 0 127 0" result="hardAlpha"/><feOffset dy=".4364"/><feGaussianBlur stdDeviation=".2182"/><feComposite in2="hardAlpha" operator="arithmetic" k2="-1" k3="1"/><feColorMatrix values="0 0 0 0 0 0 0 0 0 0 0 0 0 0 0 0 0 0 0.5 0"/><feBlend in2="shape" result="effect2_innerShadow_1342_14575"/></filter><filter id="f" x="8.0342" y="6.22" width="7.967" height="11.684" filterUnits="userSpaceOnUse" color-interpolation-filters="sRGB"><feFlood flood-opacity="0" result="BackgroundImageFix"/><feBlend in="SourceGraphic" in2="BackgroundImageFix" result="shape"/><feColorMatrix in="SourceAlpha" values="0 0 0 0 0 0 0 0 0 0 0 0 0 0 0 0 0 0 127 0" result="hardAlpha"/><feOffset dy=".3839"/><feGaussianBlur stdDeviation=".192"/><feComposite in2="hardAlpha" operator="arithmetic" k2="-1" k3="1"/><feColorMatrix values="0 0 0 0 0 0 0 0 0 0 0 0 0 0 0 0 0 0 0.25 0"/><feBlend in2="shape" result="effect1_innerShadow_1342_14575"/></filter></defs></svg>
