<svg xmlns="http://www.w3.org/2000/svg" width="13" height="16" fill="none"><path fill="#1F1F1F" d="M2.487 16c-.65 0-1.145-.164-1.482-.492C.668 15.18.5 14.679.5 14.007V8.266c0-.662.168-1.157.505-1.485.337-.328.831-.492 1.482-.492h8.026c.656 0 1.15.164 1.482.492.337.328.505.823.505 1.485v5.74c0 .673-.168 1.174-.505 1.502-.331.328-.825.492-1.482.492H2.487Zm.396-1.596h7.242c.174 0 .306-.048.396-.143.09-.09.135-.228.135-.413V8.425c0-.18-.045-.315-.135-.405-.09-.095-.222-.143-.396-.143H2.883c-.174 0-.309.048-.404.143-.09.09-.135.225-.135.405v5.423c0 .185.045.323.135.413.095.095.23.143.404.143Zm-.791-7.408v-2.55c0-.963.202-1.775.606-2.437a4.01 4.01 0 0 1 1.617-1.5A4.753 4.753 0 0 1 6.495 0c.792 0 1.522.17 2.19.508a3.94 3.94 0 0 1 1.617 1.5c.41.663.615 1.475.615 2.439v2.549H9.165V4.328c0-.583-.123-1.078-.37-1.485a2.41 2.41 0 0 0-.969-.93 2.736 2.736 0 0 0-1.33-.325c-.483 0-.927.109-1.33.326a2.426 2.426 0 0 0-.96.929c-.237.407-.354.902-.354 1.485v2.668h-1.76Z"/></svg>