<svg width="20" height="20" fill="none" xmlns="http://www.w3.org/2000/svg"><g clip-path="url(#a)"><g filter="url(#b)"><rect y="5" width="20" height="13.33" rx="1.67" fill="#FF2C5C"/></g><g filter="url(#c)"><path d="M8.33 4.17c0-.4 0-.6.13-.71.12-.13.31-.13.7-.13h1.67c.4 0 .6 0 .71.13.13.12.13.31.13.7V5H8.33v-.83Z" fill="#FF2C5C"/></g><g filter="url(#d)"><circle cx="15.83" cy="8.33" r="1.67" fill="#FBFF22"/></g><g filter="url(#e)"><circle cx="13.33" cy="12.5" r="1.67" fill="#FBFF22"/></g><g filter="url(#f)"><path fill-rule="evenodd" clip-rule="evenodd" d="M6.94 8.33c0-.39 0-.59-.12-.7-.12-.13-.32-.13-.7-.13h-.56c-.4 0-.6 0-.72.12s-.12.32-.12.71v.56c0 .4 0 .59-.12.71s-.32.12-.71.12h-.56c-.39 0-.59 0-.7.12-.13.13-.13.32-.13.72v.55c0 .4 0 .59.12.71s.32.12.71.12h.56c.4 0 .59 0 .71.13.12.12.12.31.12.7v.56c0 .4 0 .6.12.71.13.13.32.13.72.13h.55c.4 0 .59 0 .71-.13.12-.12.12-.31.12-.7v-.56c0-.4 0-.6.13-.71.12-.13.31-.13.7-.13h.56c.4 0 .6 0 .71-.12.13-.12.13-.32.13-.7v-.56c0-.4 0-.6-.13-.72-.12-.12-.31-.12-.7-.12h-.56c-.4 0-.6 0-.71-.12-.13-.12-.13-.32-.13-.71v-.56Z" fill="#fff"/></g><path fill="url(#g)" d="M9.17 0h1.67v3.33H9.17z"/></g><defs><filter id="b" x="0" y="4.75" width="20" height="14" filterUnits="userSpaceOnUse" color-interpolation-filters="sRGB"><feFlood flood-opacity="0" result="BackgroundImageFix"/><feBlend in="SourceGraphic" in2="BackgroundImageFix" result="shape"/><feColorMatrix in="SourceAlpha" values="0 0 0 0 0 0 0 0 0 0 0 0 0 0 0 0 0 0 127 0" result="hardAlpha"/><feOffset dy="-1.67"/><feGaussianBlur stdDeviation=".13"/><feComposite in2="hardAlpha" operator="arithmetic" k2="-1" k3="1"/><feColorMatrix values="0 0 0 0 0 0 0 0 0 0 0 0 0 0 0 0 0 0 0.56 0"/><feBlend in2="shape" result="effect1_innerShadow_4857_20000"/><feColorMatrix in="SourceAlpha" values="0 0 0 0 0 0 0 0 0 0 0 0 0 0 0 0 0 0 127 0" result="hardAlpha"/><feOffset dy=".42"/><feGaussianBlur stdDeviation=".21"/><feComposite in2="hardAlpha" operator="arithmetic" k2="-1" k3="1"/><feColorMatrix values="0 0 0 0 1 0 0 0 0 1 0 0 0 0 1 0 0 0 0.31 0"/><feBlend in2="effect1_innerShadow_4857_20000" result="effect2_innerShadow_4857_20000"/></filter><filter id="c" x="8.33" y="2.92" width="3.33" height="2.08" filterUnits="userSpaceOnUse" color-interpolation-filters="sRGB"><feFlood flood-opacity="0" result="BackgroundImageFix"/><feBlend in="SourceGraphic" in2="BackgroundImageFix" result="shape"/><feColorMatrix in="SourceAlpha" values="0 0 0 0 0 0 0 0 0 0 0 0 0 0 0 0 0 0 127 0" result="hardAlpha"/><feOffset dy="-.83"/><feGaussianBlur stdDeviation=".21"/><feComposite in2="hardAlpha" operator="arithmetic" k2="-1" k3="1"/><feColorMatrix values="0 0 0 0 0 0 0 0 0 0 0 0 0 0 0 0 0 0 0.32 0"/><feBlend in2="shape" result="effect1_innerShadow_4857_20000"/></filter><filter id="d" x="14.17" y="6.5" width="3.33" height="3.67" filterUnits="userSpaceOnUse" color-interpolation-filters="sRGB"><feFlood flood-opacity="0" result="BackgroundImageFix"/><feColorMatrix in="SourceAlpha" values="0 0 0 0 0 0 0 0 0 0 0 0 0 0 0 0 0 0 127 0" result="hardAlpha"/><feOffset dy=".17"/><feComposite in2="hardAlpha" operator="out"/><feColorMatrix values="0 0 0 0 0 0 0 0 0 0 0 0 0 0 0 0 0 0 0.62 0"/><feBlend in2="BackgroundImageFix" result="effect1_dropShadow_4857_20000"/><feBlend in="SourceGraphic" in2="effect1_dropShadow_4857_20000" result="shape"/><feColorMatrix in="SourceAlpha" values="0 0 0 0 0 0 0 0 0 0 0 0 0 0 0 0 0 0 127 0" result="hardAlpha"/><feOffset dy="-.17"/><feGaussianBlur stdDeviation=".08"/><feComposite in2="hardAlpha" operator="arithmetic" k2="-1" k3="1"/><feColorMatrix values="0 0 0 0 0.380392 0 0 0 0 0.0666667 0 0 0 0 0.137255 0 0 0 1 0"/><feBlend in2="shape" result="effect2_innerShadow_4857_20000"/></filter><filter id="e" x="11.67" y="10.67" width="3.33" height="3.67" filterUnits="userSpaceOnUse" color-interpolation-filters="sRGB"><feFlood flood-opacity="0" result="BackgroundImageFix"/><feColorMatrix in="SourceAlpha" values="0 0 0 0 0 0 0 0 0 0 0 0 0 0 0 0 0 0 127 0" result="hardAlpha"/><feOffset dy=".17"/><feComposite in2="hardAlpha" operator="out"/><feColorMatrix values="0 0 0 0 0 0 0 0 0 0 0 0 0 0 0 0 0 0 0.62 0"/><feBlend in2="BackgroundImageFix" result="effect1_dropShadow_4857_20000"/><feBlend in="SourceGraphic" in2="effect1_dropShadow_4857_20000" result="shape"/><feColorMatrix in="SourceAlpha" values="0 0 0 0 0 0 0 0 0 0 0 0 0 0 0 0 0 0 127 0" result="hardAlpha"/><feOffset dy="-.17"/><feGaussianBlur stdDeviation=".08"/><feComposite in2="hardAlpha" operator="arithmetic" k2="-1" k3="1"/><feColorMatrix values="0 0 0 0 0.380392 0 0 0 0 0.0666667 0 0 0 0 0.137255 0 0 0 1 0"/><feBlend in2="shape" result="effect2_innerShadow_4857_20000"/></filter><filter id="f" x="2.5" y="7.33" width="6.67" height="7" filterUnits="userSpaceOnUse" color-interpolation-filters="sRGB"><feFlood flood-opacity="0" result="BackgroundImageFix"/><feColorMatrix in="SourceAlpha" values="0 0 0 0 0 0 0 0 0 0 0 0 0 0 0 0 0 0 127 0" result="hardAlpha"/><feOffset dy=".17"/><feComposite in2="hardAlpha" operator="out"/><feColorMatrix values="0 0 0 0 0 0 0 0 0 0 0 0 0 0 0 0 0 0 0.62 0"/><feBlend in2="BackgroundImageFix" result="effect1_dropShadow_4857_20000"/><feBlend in="SourceGraphic" in2="effect1_dropShadow_4857_20000" result="shape"/><feColorMatrix in="SourceAlpha" values="0 0 0 0 0 0 0 0 0 0 0 0 0 0 0 0 0 0 127 0" result="hardAlpha"/><feOffset dy="-.17"/><feGaussianBlur stdDeviation=".08"/><feComposite in2="hardAlpha" operator="arithmetic" k2="-1" k3="1"/><feColorMatrix values="0 0 0 0 0.380392 0 0 0 0 0.0666667 0 0 0 0 0.137255 0 0 0 1 0"/><feBlend in2="shape" result="effect2_innerShadow_4857_20000"/></filter><linearGradient id="g" x1="10" y1="0" x2="10" y2="3.33" gradientUnits="userSpaceOnUse"><stop stop-color="#fff" stop-opacity="0"/><stop offset=".74" stop-color="#fff"/></linearGradient><clipPath id="a"><path fill="#fff" d="M0 0h20v20H0z"/></clipPath></defs></svg>