<svg width="20" height="20" fill="none" xmlns="http://www.w3.org/2000/svg"><g clip-path="url(#a)"><g filter="url(#b)"><circle cx="10" cy="11.67" r="8.33" fill="url(#c)"/></g><circle cx="10" cy="11.67" r="8.33" fill="url(#d)"/><g filter="url(#e)"><path d="M10 16.35c2.9 0 5.31-1.95 5.82-4.52.1-.54-.39-1-.98-1H5.16c-.6 0-1.09.46-.98 1A5.82 5.82 0 0 0 10 16.35Z" fill="#794707"/></g><g filter="url(#f)"><path d="M13.96 14.93A6.14 6.14 0 0 1 10 16.35a6.14 6.14 0 0 1-3.96-1.42C6.34 13.78 8 12.9 10 12.9s3.65.88 3.96 2.03Z" fill="url(#g)"/></g><g filter="url(#h)"><path d="M3.12 1.8C3.64.64 3.9.06 4.38.01c.47-.05.85.46 1.6 1.5l.1.11c.2.3.31.44.46.53.16.09.34.1.7.14l.15.02c1.26.14 1.9.2 2.09.65.2.43-.18.95-.92 1.98l-.1.13c-.2.29-.3.44-.34.6-.04.18 0 .36.07.71l.03.15c.26 1.24.39 1.87.03 2.19-.35.32-.96.12-2.17-.26l-.14-.05c-.35-.11-.52-.17-.7-.15-.17.02-.33.11-.64.29l-.13.07c-1.1.64-1.66.95-2.07.71-.42-.24-.42-.87-.43-2.15v-.15c0-.36 0-.54-.07-.7-.07-.16-.2-.28-.47-.52l-.12-.1C.37 4.84-.1 4.41 0 3.94c.1-.47.7-.67 1.91-1.06l.15-.05c.34-.11.51-.17.64-.29.13-.12.2-.28.36-.61l.06-.14Z" fill="url(#i)"/></g><path d="m7.59 5.56.53.12-.53-.12a2.07 2.07 0 0 0 .07.93l.53-.11-.53.11.03.15c.13.64.22 1.06.24 1.36 0 .15 0 .23-.02.27 0 .03-.01.04-.02.04 0 .01-.01.02-.04.02-.05.01-.13.01-.27-.01-.3-.05-.71-.18-1.33-.38l-.15-.05-.16.52.16-.52-.06-.02a2.07 2.07 0 0 0-.85-.15c-.3.03-.55.18-.8.33l-.06.03.27.47-.27-.47-.13.07c-.57.33-.94.54-1.22.65a.88.88 0 0 1-.27.07h-.04l-.03-.04a.88.88 0 0 1-.07-.27c-.05-.3-.05-.72-.05-1.38v-.22c0-.29 0-.58-.13-.85-.11-.27-.33-.46-.55-.66L1.8 5.4l-.36.4.36-.4-.11-.1c-.49-.44-.8-.73-1-.96a.88.88 0 0 1-.14-.23l-.01-.04c0-.01 0-.02.03-.05.03-.03.1-.08.22-.14.27-.14.68-.27 1.3-.48l.15-.05.06-.02c.28-.09.56-.18.78-.38.21-.2.33-.46.45-.73l.03-.06-.5-.22.5.22.06-.14c.27-.6.45-.98.61-1.24a.88.88 0 0 1 .17-.2l.04-.03.05.01.21.17c.21.22.47.56.86 1.1l.08.11.04.06c.18.23.35.47.6.62a2.07 2.07 0 0 0 .9.21l.16.02c.65.07 1.07.12 1.37.2.14.03.21.07.25.1.03.01.03.02.03.03v.04c0 .05-.02.13-.1.26-.13.27-.38.61-.76 1.15l-.09.12-.04.05c-.17.24-.34.48-.4.76Z" stroke="url(#j)" stroke-width="1.08"/><g filter="url(#k)"><path d="M3.12 1.8C3.64.64 3.9.06 4.38.01c.47-.05.85.46 1.6 1.5l.1.11c.2.3.31.44.46.53.16.09.34.1.7.14l.15.02c1.26.14 1.9.2 2.09.65.2.43-.18.95-.92 1.98l-.1.13c-.2.29-.3.44-.34.6-.04.18 0 .36.07.71l.03.15c.26 1.24.39 1.87.03 2.19-.35.32-.96.12-2.17-.26l-.14-.05c-.35-.11-.52-.17-.7-.15-.17.02-.33.11-.64.29l-.13.07c-1.1.64-1.66.95-2.07.71-.42-.24-.42-.87-.43-2.15v-.15c0-.36 0-.54-.07-.7-.07-.16-.2-.28-.47-.52l-.12-.1C.37 4.84-.1 4.41 0 3.94c.1-.47.7-.67 1.91-1.06l.15-.05c.34-.11.51-.17.64-.29.13-.12.2-.28.36-.61l.06-.14Z" fill="#FF00A8" fill-opacity=".01"/></g><g filter="url(#l)"><path d="M16.86 1.86C16.33.7 16.07.12 15.6.06c-.48-.04-.86.47-1.6 1.5l-.1.12c-.21.29-.32.44-.47.52-.15.1-.33.11-.7.15l-.14.02c-1.27.13-1.9.2-2.1.64-.2.44.18.96.93 1.99l.08.12c.22.3.32.44.36.61.03.17 0 .35-.08.7l-.03.15c-.26 1.25-.39 1.87-.03 2.2.35.31.96.12 2.17-.27l.15-.05c.34-.1.51-.16.69-.14.17.02.33.1.64.29l.13.07c1.11.63 1.66.95 2.08.7.41-.23.41-.87.42-2.14v-.15c0-.36 0-.54.07-.7.07-.16.2-.29.48-.53l.1-.1c.95-.86 1.42-1.28 1.32-1.75-.1-.47-.7-.67-1.91-1.07l-.14-.05a1.78 1.78 0 0 1-.65-.28c-.13-.12-.2-.28-.35-.61l-.06-.14Z" fill="url(#m)"/></g><path d="m12.39 5.62-.53.11.53-.11c.06.29 0 .57-.06.86l-.02.07-.53-.11.53.1-.03.15c-.13.64-.22 1.07-.23 1.37-.01.14 0 .22.01.27 0 .03.02.04.02.04l.05.02.27-.02c.3-.05.7-.18 1.33-.38l.14-.04.17.51-.17-.51.07-.02c.27-.1.55-.18.85-.15.29.03.54.18.8.32l.05.03-.27.48.27-.48.13.08c.57.33.95.54 1.23.65.13.05.21.07.26.07l.05-.01.03-.04a.88.88 0 0 0 .07-.26c.04-.3.05-.73.05-1.38v-.22c0-.3 0-.59.12-.85.12-.27.34-.47.55-.66l.05-.05.37.4-.37-.4.11-.1c.49-.44.8-.73 1-.96l.15-.23v-.05l-.02-.04a.88.88 0 0 0-.23-.15c-.27-.13-.68-.27-1.3-.47l-.14-.05-.07-.02c-.28-.1-.55-.18-.77-.38-.22-.2-.34-.46-.46-.73l-.03-.06.5-.22-.5.22-.06-.14c-.27-.6-.44-.99-.6-1.24a.88.88 0 0 0-.18-.21L15.54.6l-.05.02a.88.88 0 0 0-.2.17c-.22.21-.48.56-.86 1.09l-.1.12c0 .02-.02.04-.03.05-.17.24-.35.48-.6.62a2.07 2.07 0 0 1-.9.22l-.15.02c-.65.07-1.08.11-1.37.2a.88.88 0 0 0-.26.09l-.03.03v.05c0 .04.03.12.1.25.13.27.38.62.77 1.15l.08.12.04.06c.17.24.35.47.4.76Z" stroke="url(#n)" stroke-width="1.08"/><g filter="url(#o)"><path d="M16.86 1.86C16.33.7 16.07.12 15.6.06c-.48-.04-.86.47-1.6 1.5l-.1.12c-.21.29-.32.44-.47.52-.15.1-.33.11-.7.15l-.14.02c-1.27.13-1.9.2-2.1.64-.2.44.18.96.93 1.99l.08.12c.22.3.32.44.36.61.03.17 0 .35-.08.7l-.03.15c-.26 1.25-.39 1.87-.03 2.2.35.31.96.12 2.17-.27l.15-.05c.34-.1.51-.16.69-.14.17.02.33.1.64.29l.13.07c1.11.63 1.66.95 2.08.7.41-.23.41-.87.42-2.14v-.15c0-.36 0-.54.07-.7.07-.16.2-.29.48-.53l.1-.1c.95-.86 1.42-1.28 1.32-1.75-.1-.47-.7-.67-1.91-1.07l-.14-.05a1.78 1.78 0 0 1-.65-.28c-.13-.12-.2-.28-.35-.61l-.06-.14Z" fill="#FF00A8" fill-opacity=".01"/></g></g><defs><filter id="b" x=".83" y="1.67" width="17.5" height="18.33" filterUnits="userSpaceOnUse" color-interpolation-filters="sRGB"><feFlood flood-opacity="0" result="BackgroundImageFix"/><feBlend in="SourceGraphic" in2="BackgroundImageFix" result="shape"/><feColorMatrix in="SourceAlpha" values="0 0 0 0 0 0 0 0 0 0 0 0 0 0 0 0 0 0 127 0" result="hardAlpha"/><feOffset dx="-.83" dy="-1.67"/><feGaussianBlur stdDeviation="1.67"/><feComposite in2="hardAlpha" operator="arithmetic" k2="-1" k3="1"/><feColorMatrix values="0 0 0 0 0.816667 0 0 0 0 0.363657 0 0 0 0 0.190556 0 0 0 1 0"/><feBlend in2="shape" result="effect1_innerShadow_4857_20057"/></filter><filter id="e" x="4.03" y="10.83" width="11.94" height="5.8" filterUnits="userSpaceOnUse" color-interpolation-filters="sRGB"><feFlood flood-opacity="0" result="BackgroundImageFix"/><feColorMatrix in="SourceAlpha" values="0 0 0 0 0 0 0 0 0 0 0 0 0 0 0 0 0 0 127 0" result="hardAlpha"/><feOffset dy=".14"/><feGaussianBlur stdDeviation=".07"/><feComposite in2="hardAlpha" operator="out"/><feColorMatrix values="0 0 0 0 1 0 0 0 0 1 0 0 0 0 1 0 0 0 0.71 0"/><feBlend in2="BackgroundImageFix" result="effect1_dropShadow_4857_20057"/><feBlend in="SourceGraphic" in2="effect1_dropShadow_4857_20057" result="shape"/><feColorMatrix in="SourceAlpha" values="0 0 0 0 0 0 0 0 0 0 0 0 0 0 0 0 0 0 127 0" result="hardAlpha"/><feOffset/><feGaussianBlur stdDeviation=".17"/><feComposite in2="hardAlpha" operator="arithmetic" k2="-1" k3="1"/><feColorMatrix values="0 0 0 0 0 0 0 0 0 0 0 0 0 0 0 0 0 0 0.69 0"/><feBlend in2="shape" result="effect2_innerShadow_4857_20057"/></filter><filter id="f" x="6.04" y="12.9" width="7.92" height="3.62" filterUnits="userSpaceOnUse" color-interpolation-filters="sRGB"><feFlood flood-opacity="0" result="BackgroundImageFix"/><feBlend in="SourceGraphic" in2="BackgroundImageFix" result="shape"/><feColorMatrix in="SourceAlpha" values="0 0 0 0 0 0 0 0 0 0 0 0 0 0 0 0 0 0 127 0" result="hardAlpha"/><feOffset dy=".17"/><feGaussianBlur stdDeviation=".17"/><feComposite in2="hardAlpha" operator="arithmetic" k2="-1" k3="1"/><feColorMatrix values="0 0 0 0 0.51276 0 0 0 0 0.0415645 0 0 0 0 0.0415645 0 0 0 0.4 0"/><feBlend in2="shape" result="effect1_innerShadow_4857_20057"/></filter><filter id="h" x="-.01" y="-1.4" width="10.94" height="10.81" filterUnits="userSpaceOnUse" color-interpolation-filters="sRGB"><feFlood flood-opacity="0" result="BackgroundImageFix"/><feBlend in="SourceGraphic" in2="BackgroundImageFix" result="shape"/><feColorMatrix in="SourceAlpha" values="0 0 0 0 0 0 0 0 0 0 0 0 0 0 0 0 0 0 127 0" result="hardAlpha"/><feOffset dx="1.4" dy="-1.4"/><feGaussianBlur stdDeviation="1.4"/><feComposite in2="hardAlpha" operator="arithmetic" k2="-1" k3="1"/><feColorMatrix values="0 0 0 0 0 0 0 0 0 0.52 0 0 0 0 1 0 0 0 0.25 0"/><feBlend in2="shape" result="effect1_innerShadow_4857_20057"/><feColorMatrix in="SourceAlpha" values="0 0 0 0 0 0 0 0 0 0 0 0 0 0 0 0 0 0 127 0" result="hardAlpha"/><feOffset/><feGaussianBlur stdDeviation=".7"/><feComposite in2="hardAlpha" operator="arithmetic" k2="-1" k3="1"/><feColorMatrix values="0 0 0 0 0 0 0 0 0 0.521569 0 0 0 0 1 0 0 0 0.51 0"/><feBlend in2="effect1_innerShadow_4857_20057" result="effect2_innerShadow_4857_20057"/></filter><filter id="k" x="-.01" y="-.16" width="9.54" height="9.74" filterUnits="userSpaceOnUse" color-interpolation-filters="sRGB"><feFlood flood-opacity="0" result="BackgroundImageFix"/><feBlend in="SourceGraphic" in2="BackgroundImageFix" result="shape"/><feColorMatrix in="SourceAlpha" values="0 0 0 0 0 0 0 0 0 0 0 0 0 0 0 0 0 0 127 0" result="hardAlpha"/><feOffset dy="-.17"/><feGaussianBlur stdDeviation=".08"/><feComposite in2="hardAlpha" operator="arithmetic" k2="-1" k3="1"/><feColorMatrix values="0 0 0 0 0.5375 0 0 0 0 0.00223958 0 0 0 0 0.387627 0 0 0 1 0"/><feBlend in2="shape" result="effect1_innerShadow_4857_20057"/><feColorMatrix in="SourceAlpha" values="0 0 0 0 0 0 0 0 0 0 0 0 0 0 0 0 0 0 127 0" result="hardAlpha"/><feOffset dy=".17"/><feGaussianBlur stdDeviation=".08"/><feComposite in2="hardAlpha" operator="arithmetic" k2="-1" k3="1"/><feColorMatrix values="0 0 0 0 1 0 0 0 0 1 0 0 0 0 1 0 0 0 1 0"/><feBlend in2="effect1_innerShadow_4857_20057" result="effect2_innerShadow_4857_20057"/></filter><filter id="l" x="9.04" y="-1.34" width="10.95" height="14.14" filterUnits="userSpaceOnUse" color-interpolation-filters="sRGB"><feFlood flood-opacity="0" result="BackgroundImageFix"/><feBlend in="SourceGraphic" in2="BackgroundImageFix" result="shape"/><feColorMatrix in="SourceAlpha" values="0 0 0 0 0 0 0 0 0 0 0 0 0 0 0 0 0 0 127 0" result="hardAlpha"/><feOffset dx="-1.4" dy="-1.4"/><feGaussianBlur stdDeviation="1.4"/><feComposite in2="hardAlpha" operator="arithmetic" k2="-1" k3="1"/><feColorMatrix values="0 0 0 0 0 0 0 0 0 0.52 0 0 0 0 1 0 0 0 0.25 0"/><feBlend in2="shape" result="effect1_innerShadow_4857_20057"/><feColorMatrix in="SourceAlpha" values="0 0 0 0 0 0 0 0 0 0 0 0 0 0 0 0 0 0 127 0" result="hardAlpha"/><feOffset/><feGaussianBlur stdDeviation=".7"/><feComposite in2="hardAlpha" operator="arithmetic" k2="-1" k3="1"/><feColorMatrix values="0 0 0 0 0 0 0 0 0 0.521569 0 0 0 0 1 0 0 0 0.51 0"/><feBlend in2="effect1_innerShadow_4857_20057" result="effect2_innerShadow_4857_20057"/><feColorMatrix in="SourceAlpha" values="0 0 0 0 0 0 0 0 0 0 0 0 0 0 0 0 0 0 127 0" result="hardAlpha"/><feOffset dy="3.33"/><feGaussianBlur stdDeviation="1.67"/><feComposite in2="hardAlpha" operator="arithmetic" k2="-1" k3="1"/><feColorMatrix values="0 0 0 0 0 0 0 0 0 0 0 0 0 0 0 0 0 0 0.25 0"/><feBlend in2="effect2_innerShadow_4857_20057" result="effect3_innerShadow_4857_20057"/></filter><filter id="o" x="10.44" y="-.1" width="9.54" height="9.74" filterUnits="userSpaceOnUse" color-interpolation-filters="sRGB"><feFlood flood-opacity="0" result="BackgroundImageFix"/><feBlend in="SourceGraphic" in2="BackgroundImageFix" result="shape"/><feColorMatrix in="SourceAlpha" values="0 0 0 0 0 0 0 0 0 0 0 0 0 0 0 0 0 0 127 0" result="hardAlpha"/><feOffset dy="-.17"/><feGaussianBlur stdDeviation=".08"/><feComposite in2="hardAlpha" operator="arithmetic" k2="-1" k3="1"/><feColorMatrix values="0 0 0 0 0.5375 0 0 0 0 0.00223958 0 0 0 0 0.387627 0 0 0 1 0"/><feBlend in2="shape" result="effect1_innerShadow_4857_20057"/><feColorMatrix in="SourceAlpha" values="0 0 0 0 0 0 0 0 0 0 0 0 0 0 0 0 0 0 127 0" result="hardAlpha"/><feOffset dy=".17"/><feGaussianBlur stdDeviation=".08"/><feComposite in2="hardAlpha" operator="arithmetic" k2="-1" k3="1"/><feColorMatrix values="0 0 0 0 1 0 0 0 0 1 0 0 0 0 1 0 0 0 1 0"/><feBlend in2="effect1_innerShadow_4857_20057" result="effect2_innerShadow_4857_20057"/></filter><linearGradient id="g" x1="10" y1="12.9" x2="10" y2="16.35" gradientUnits="userSpaceOnUse"><stop stop-color="#F04343"/><stop offset=".23" stop-color="#EF4343"/><stop offset=".38" stop-color="#E13737"/><stop offset="1" stop-color="#C72121"/></linearGradient><linearGradient id="i" x1="4.29" y1="-.81" x2="4.9" y2="8.98" gradientUnits="userSpaceOnUse"><stop stop-color="#FF007A"/><stop offset="1" stop-color="#670031"/></linearGradient><linearGradient id="j" x1="4.29" y1="-.81" x2="5.51" y2="10.8" gradientUnits="userSpaceOnUse"><stop stop-color="#FFB1E4"/><stop offset="1" stop-color="#FF00A7"/></linearGradient><linearGradient id="m" x1="15.68" y1="-.75" x2="14.46" y2="10.85" gradientUnits="userSpaceOnUse"><stop stop-color="#FF007A"/><stop offset="1" stop-color="#670031"/></linearGradient><linearGradient id="n" x1="15.68" y1="-.75" x2="14.46" y2="10.85" gradientUnits="userSpaceOnUse"><stop stop-color="#FFB1E4"/><stop offset="1" stop-color="#FF00A8"/></linearGradient><radialGradient id="c" cx="0" cy="0" r="1" gradientUnits="userSpaceOnUse" gradientTransform="rotate(78.56 .21 7.02) scale(14.879)"><stop stop-color="#FFEA9F"/><stop offset=".12" stop-color="#FFE380"/><stop offset=".42" stop-color="#FFD250"/><stop offset=".64" stop-color="#FFC122"/><stop offset="1" stop-color="#FFB422"/></radialGradient><radialGradient id="d" cx="0" cy="0" r="1" gradientUnits="userSpaceOnUse" gradientTransform="rotate(78.56 .21 7.02) scale(14.879)"><stop offset=".56" stop-color="#E35D12" stop-opacity="0"/><stop offset="1" stop-color="#FF24F6" stop-opacity=".3"/></radialGradient><clipPath id="a"><path fill="#fff" d="M0 0h20v20H0z"/></clipPath></defs></svg>