<svg width="20" height="20" fill="none" xmlns="http://www.w3.org/2000/svg"><g clip-path="url(#a)"><circle cx="10" cy="11.67" r="8.33" fill="url(#b)"/><g filter="url(#c)"><circle cx="10" cy="11.67" r="8.33" fill="url(#d)"/></g><circle cx="10" cy="11.67" r="8.33" fill="url(#e)"/><g filter="url(#f)"><path d="M10 16.35c2.9 0 5.31-1.95 5.82-4.52.1-.54-.39-1-.98-1H5.16c-.6 0-1.09.46-.98 1A5.82 5.82 0 0 0 10 16.35Z" fill="#794707"/></g><g filter="url(#g)"><path d="M13.96 14.93A6.14 6.14 0 0 1 10 16.35a6.14 6.14 0 0 1-3.96-1.42C6.34 13.78 8 12.9 10 12.9s3.65.88 3.96 2.03Z" fill="url(#h)"/></g><g filter="url(#i)"><circle cx="14.58" cy="5.42" r="4.58" fill="url(#j)"/></g><g filter="url(#k)"><circle cx="5.42" cy="5.42" r="4.58" fill="url(#l)"/></g><g filter="url(#m)"><circle cx="14.58" cy="5.42" r="3.75" fill="#F39200"/></g><g filter="url(#n)"><circle cx="5.42" cy="5.42" r="3.75" fill="#F39200"/></g><path d="M14.29 6.96V5.59c-.56-.12-.97-.3-1.23-.55a1.2 1.2 0 0 1-.39-.9c0-.36.15-.66.44-.9.3-.24.69-.38 1.18-.42v-.01a.3.3 0 0 1 .61 0v.01c.45.04.81.16 1.08.36.24.17.4.4.49.69.01.04-.02.1-.07.1l-.91.09a.09.09 0 0 1-.1-.06.72.72 0 0 0-.49-.46v1.28c.68.14 1.15.32 1.4.55.24.22.37.51.37.86 0 .4-.16.73-.47 1-.31.27-.74.43-1.3.5v.3a.3.3 0 0 1-.61 0v-.29c-.5-.05-.9-.19-1.2-.42a1.56 1.56 0 0 1-.57-.9.08.08 0 0 1 .07-.1l.95-.08c.04 0 .08.02.1.06.04.15.12.27.23.38.12.13.26.22.42.28Zm0-3.43a.82.82 0 0 0-.4.23.5.5 0 0 0-.15.34c0 .12.04.22.13.32.1.1.23.18.42.24V3.53ZM14.9 7c.22-.03.39-.1.52-.22.14-.12.2-.27.2-.43a.5.5 0 0 0-.17-.37c-.1-.11-.3-.2-.55-.25V7Z" fill="url(#o)"/><path d="M15.2 4.22c.07.09.18.14.31.13l.92-.1a.37.37 0 0 0 .32-.47c-.1-.34-.3-.63-.6-.84-.27-.2-.61-.32-1.01-.38a.6.6 0 0 0-1.09 0c-.44.06-.82.2-1.13.46-.35.3-.54.67-.54 1.12 0 .43.16.8.48 1.11.27.26.66.44 1.13.57v.56a.68.68 0 0 1-.08-.17l-.28.1.28-.1a.38.38 0 0 0-.4-.26l-.94.08a.37.37 0 0 0-.33.46c.1.44.33.8.67 1.06.3.23.66.38 1.08.45v.02a.6.6 0 0 0 1.2 0v-.04c.48-.09.89-.26 1.2-.53.37-.32.57-.73.57-1.22 0-.43-.16-.8-.47-1.08a2.98 2.98 0 0 0-1.3-.57v-.36Zm.05 1.97c.06.05.08.1.08.16 0 .07-.02.14-.1.21a.51.51 0 0 1-.04.03v-.45l.06.05Z" stroke="#000" stroke-opacity=".2" stroke-width=".58"/><path d="M5.12 6.96V5.59c-.56-.12-.97-.3-1.23-.55a1.2 1.2 0 0 1-.39-.9c0-.36.15-.66.44-.9.3-.24.69-.38 1.18-.42v-.01a.3.3 0 1 1 .62 0v.01c.45.04.8.16 1.07.36.25.17.4.4.5.69 0 .04-.03.1-.08.1l-.91.09a.09.09 0 0 1-.1-.06.72.72 0 0 0-.48-.46v1.28c.68.14 1.14.32 1.39.55.25.22.37.51.37.86 0 .4-.16.73-.47 1-.3.27-.74.43-1.3.5v.3a.3.3 0 0 1-.61 0v-.29c-.5-.05-.9-.19-1.2-.42a1.56 1.56 0 0 1-.57-.9.08.08 0 0 1 .08-.1l.95-.08c.04 0 .07.02.09.06.04.15.12.27.23.38.13.13.27.22.42.28Zm0-3.43a.82.82 0 0 0-.4.23.5.5 0 0 0-.15.34c0 .12.04.22.14.32.09.1.22.18.4.24V3.53ZM5.74 7c.2-.03.38-.1.52-.22.13-.12.2-.27.2-.43a.5.5 0 0 0-.17-.37c-.11-.11-.3-.2-.55-.25V7Z" fill="url(#p)"/><path d="M6.03 4.22c.07.09.19.14.32.13l.91-.1a.37.37 0 0 0 .32-.47c-.1-.34-.3-.63-.6-.84-.27-.2-.61-.32-1-.38a.6.6 0 0 0-1.1 0c-.44.06-.82.2-1.12.46-.36.3-.55.67-.55 1.12 0 .43.17.8.48 1.11.28.26.66.44 1.14.57v.56a.68.68 0 0 1-.09-.17l-.27.1.27-.1a.38.38 0 0 0-.39-.26l-.95.08a.37.37 0 0 0-.33.46c.1.44.33.8.67 1.06.3.23.67.38 1.09.45v.02a.6.6 0 1 0 1.2 0v-.04c.48-.09.88-.26 1.2-.53.37-.32.56-.73.56-1.22 0-.43-.15-.8-.46-1.08a2.98 2.98 0 0 0-1.3-.57v-.36Zm.05 1.97c.07.05.08.1.08.16 0 .07-.02.14-.1.21a.51.51 0 0 1-.03.03v-.45l.05.05Z" stroke="#000" stroke-opacity=".2" stroke-width=".58"/></g><defs><filter id="c" x=".83" y="1.67" width="17.5" height="21.67" filterUnits="userSpaceOnUse" color-interpolation-filters="sRGB"><feFlood flood-opacity="0" result="BackgroundImageFix"/><feBlend in="SourceGraphic" in2="BackgroundImageFix" result="shape"/><feColorMatrix in="SourceAlpha" values="0 0 0 0 0 0 0 0 0 0 0 0 0 0 0 0 0 0 127 0" result="hardAlpha"/><feOffset dx="-.83" dy="-1.67"/><feGaussianBlur stdDeviation="1.67"/><feComposite in2="hardAlpha" operator="arithmetic" k2="-1" k3="1"/><feColorMatrix values="0 0 0 0 1 0 0 0 0 0.390417 0 0 0 0 0.129167 0 0 0 1 0"/><feBlend in2="shape" result="effect1_innerShadow_4857_20043"/><feColorMatrix in="SourceAlpha" values="0 0 0 0 0 0 0 0 0 0 0 0 0 0 0 0 0 0 127 0" result="hardAlpha"/><feOffset dy="3.33"/><feGaussianBlur stdDeviation="1.67"/><feComposite in2="hardAlpha" operator="arithmetic" k2="-1" k3="1"/><feColorMatrix values="0 0 0 0 1 0 0 0 0 0.651765 0 0 0 0 0.129412 0 0 0 1 0"/><feBlend in2="effect1_innerShadow_4857_20043" result="effect2_innerShadow_4857_20043"/></filter><filter id="f" x="4.03" y="10.83" width="11.94" height="5.8" filterUnits="userSpaceOnUse" color-interpolation-filters="sRGB"><feFlood flood-opacity="0" result="BackgroundImageFix"/><feColorMatrix in="SourceAlpha" values="0 0 0 0 0 0 0 0 0 0 0 0 0 0 0 0 0 0 127 0" result="hardAlpha"/><feOffset dy=".14"/><feGaussianBlur stdDeviation=".07"/><feComposite in2="hardAlpha" operator="out"/><feColorMatrix values="0 0 0 0 1 0 0 0 0 1 0 0 0 0 1 0 0 0 0.71 0"/><feBlend in2="BackgroundImageFix" result="effect1_dropShadow_4857_20043"/><feBlend in="SourceGraphic" in2="effect1_dropShadow_4857_20043" result="shape"/><feColorMatrix in="SourceAlpha" values="0 0 0 0 0 0 0 0 0 0 0 0 0 0 0 0 0 0 127 0" result="hardAlpha"/><feOffset/><feGaussianBlur stdDeviation=".17"/><feComposite in2="hardAlpha" operator="arithmetic" k2="-1" k3="1"/><feColorMatrix values="0 0 0 0 0 0 0 0 0 0 0 0 0 0 0 0 0 0 0.69 0"/><feBlend in2="shape" result="effect2_innerShadow_4857_20043"/></filter><filter id="g" x="6.04" y="12.9" width="7.92" height="3.62" filterUnits="userSpaceOnUse" color-interpolation-filters="sRGB"><feFlood flood-opacity="0" result="BackgroundImageFix"/><feBlend in="SourceGraphic" in2="BackgroundImageFix" result="shape"/><feColorMatrix in="SourceAlpha" values="0 0 0 0 0 0 0 0 0 0 0 0 0 0 0 0 0 0 127 0" result="hardAlpha"/><feOffset dy=".17"/><feGaussianBlur stdDeviation=".17"/><feComposite in2="hardAlpha" operator="arithmetic" k2="-1" k3="1"/><feColorMatrix values="0 0 0 0 0.51276 0 0 0 0 0.0415645 0 0 0 0 0.0415645 0 0 0 0.4 0"/><feBlend in2="shape" result="effect1_innerShadow_4857_20043"/></filter><filter id="i" x="10" y=".75" width="9.17" height="9.42" filterUnits="userSpaceOnUse" color-interpolation-filters="sRGB"><feFlood flood-opacity="0" result="BackgroundImageFix"/><feBlend in="SourceGraphic" in2="BackgroundImageFix" result="shape"/><feColorMatrix in="SourceAlpha" values="0 0 0 0 0 0 0 0 0 0 0 0 0 0 0 0 0 0 127 0" result="hardAlpha"/><feOffset dy="-.08"/><feGaussianBlur stdDeviation=".13"/><feComposite in2="hardAlpha" operator="arithmetic" k2="-1" k3="1"/><feColorMatrix values="0 0 0 0 0.704167 0 0 0 0 0.338 0 0 0 0 0 0 0 0 1 0"/><feBlend in2="shape" result="effect1_innerShadow_4857_20043"/><feColorMatrix in="SourceAlpha" values="0 0 0 0 0 0 0 0 0 0 0 0 0 0 0 0 0 0 127 0" result="hardAlpha"/><feOffset dy=".17"/><feGaussianBlur stdDeviation=".08"/><feComposite in2="hardAlpha" operator="arithmetic" k2="-1" k3="1"/><feColorMatrix values="0 0 0 0 1 0 0 0 0 1 0 0 0 0 1 0 0 0 1 0"/><feBlend in2="effect1_innerShadow_4857_20043" result="effect2_innerShadow_4857_20043"/></filter><filter id="k" x=".83" y=".75" width="9.17" height="9.42" filterUnits="userSpaceOnUse" color-interpolation-filters="sRGB"><feFlood flood-opacity="0" result="BackgroundImageFix"/><feBlend in="SourceGraphic" in2="BackgroundImageFix" result="shape"/><feColorMatrix in="SourceAlpha" values="0 0 0 0 0 0 0 0 0 0 0 0 0 0 0 0 0 0 127 0" result="hardAlpha"/><feOffset dy="-.08"/><feGaussianBlur stdDeviation=".13"/><feComposite in2="hardAlpha" operator="arithmetic" k2="-1" k3="1"/><feColorMatrix values="0 0 0 0 0.704167 0 0 0 0 0.338 0 0 0 0 0 0 0 0 1 0"/><feBlend in2="shape" result="effect1_innerShadow_4857_20043"/><feColorMatrix in="SourceAlpha" values="0 0 0 0 0 0 0 0 0 0 0 0 0 0 0 0 0 0 127 0" result="hardAlpha"/><feOffset dy=".17"/><feGaussianBlur stdDeviation=".08"/><feComposite in2="hardAlpha" operator="arithmetic" k2="-1" k3="1"/><feColorMatrix values="0 0 0 0 1 0 0 0 0 1 0 0 0 0 1 0 0 0 1 0"/><feBlend in2="effect1_innerShadow_4857_20043" result="effect2_innerShadow_4857_20043"/></filter><filter id="m" x="10.75" y="1.67" width="7.67" height="7.67" filterUnits="userSpaceOnUse" color-interpolation-filters="sRGB"><feFlood flood-opacity="0" result="BackgroundImageFix"/><feColorMatrix in="SourceAlpha" values="0 0 0 0 0 0 0 0 0 0 0 0 0 0 0 0 0 0 127 0" result="hardAlpha"/><feOffset dy=".08"/><feGaussianBlur stdDeviation=".04"/><feComposite in2="hardAlpha" operator="out"/><feColorMatrix values="0 0 0 0 1 0 0 0 0 1 0 0 0 0 1 0 0 0 1 0"/><feBlend in2="BackgroundImageFix" result="effect1_dropShadow_4857_20043"/><feBlend in="SourceGraphic" in2="effect1_dropShadow_4857_20043" result="shape"/><feColorMatrix in="SourceAlpha" values="0 0 0 0 0 0 0 0 0 0 0 0 0 0 0 0 0 0 127 0" result="hardAlpha"/><feOffset dy=".17"/><feGaussianBlur stdDeviation=".08"/><feComposite in2="hardAlpha" operator="arithmetic" k2="-1" k3="1"/><feColorMatrix values="0 0 0 0 0 0 0 0 0 0 0 0 0 0 0 0 0 0 0.5 0"/><feBlend in2="shape" result="effect2_innerShadow_4857_20043"/></filter><filter id="n" x="1.58" y="1.67" width="7.67" height="7.67" filterUnits="userSpaceOnUse" color-interpolation-filters="sRGB"><feFlood flood-opacity="0" result="BackgroundImageFix"/><feColorMatrix in="SourceAlpha" values="0 0 0 0 0 0 0 0 0 0 0 0 0 0 0 0 0 0 127 0" result="hardAlpha"/><feOffset dy=".08"/><feGaussianBlur stdDeviation=".04"/><feComposite in2="hardAlpha" operator="out"/><feColorMatrix values="0 0 0 0 1 0 0 0 0 1 0 0 0 0 1 0 0 0 1 0"/><feBlend in2="BackgroundImageFix" result="effect1_dropShadow_4857_20043"/><feBlend in="SourceGraphic" in2="effect1_dropShadow_4857_20043" result="shape"/><feColorMatrix in="SourceAlpha" values="0 0 0 0 0 0 0 0 0 0 0 0 0 0 0 0 0 0 127 0" result="hardAlpha"/><feOffset dy=".17"/><feGaussianBlur stdDeviation=".08"/><feComposite in2="hardAlpha" operator="arithmetic" k2="-1" k3="1"/><feColorMatrix values="0 0 0 0 0 0 0 0 0 0 0 0 0 0 0 0 0 0 0.5 0"/><feBlend in2="shape" result="effect2_innerShadow_4857_20043"/></filter><linearGradient id="h" x1="10" y1="12.9" x2="10" y2="16.35" gradientUnits="userSpaceOnUse"><stop stop-color="#F04343"/><stop offset=".23" stop-color="#EF4343"/><stop offset=".38" stop-color="#E13737"/><stop offset="1" stop-color="#C72121"/></linearGradient><linearGradient id="j" x1="14.58" y1=".83" x2="14.58" y2="11.25" gradientUnits="userSpaceOnUse"><stop stop-color="#FFF50A"/><stop offset=".76" stop-color="#FFC71D"/><stop offset=".88" stop-color="#F6B102"/><stop offset="1" stop-color="#FBECB8"/></linearGradient><linearGradient id="l" x1="5.42" y1=".83" x2="5.42" y2="11.25" gradientUnits="userSpaceOnUse"><stop stop-color="#FFF50A"/><stop offset=".76" stop-color="#FFC71D"/><stop offset=".88" stop-color="#F6B102"/><stop offset="1" stop-color="#FBECB8"/></linearGradient><linearGradient id="o" x1="14.58" y1="2.5" x2="14.58" y2="8.33" gradientUnits="userSpaceOnUse"><stop stop-color="#fff"/><stop offset="1" stop-color="#fff"/></linearGradient><linearGradient id="p" x1="5.42" y1="2.5" x2="5.42" y2="8.33" gradientUnits="userSpaceOnUse"><stop stop-color="#fff"/><stop offset="1" stop-color="#fff"/></linearGradient><radialGradient id="b" cx="0" cy="0" r="1" gradientUnits="userSpaceOnUse" gradientTransform="rotate(78.56 .21 7.02) scale(14.879)"><stop stop-color="#FFEA9F"/><stop offset=".12" stop-color="#FFE380"/><stop offset=".42" stop-color="#FFD250"/><stop offset=".64" stop-color="#FFC122"/><stop offset="1" stop-color="#FFB422"/></radialGradient><radialGradient id="d" cx="0" cy="0" r="1" gradientUnits="userSpaceOnUse" gradientTransform="rotate(78.56 .21 7.02) scale(14.879)"><stop stop-color="#FFEA9F"/><stop offset=".12" stop-color="#FFE380"/><stop offset=".42" stop-color="#FFD250"/><stop offset=".64" stop-color="#FFC122"/><stop offset="1" stop-color="#FFB422"/></radialGradient><radialGradient id="e" cx="0" cy="0" r="1" gradientUnits="userSpaceOnUse" gradientTransform="rotate(78.56 .21 7.02) scale(14.879)"><stop offset=".56" stop-color="#E35D12" stop-opacity="0"/><stop offset="1" stop-color="#FF24F6" stop-opacity=".3"/></radialGradient><clipPath id="a"><path fill="#fff" d="M0 0h20v20H0z"/></clipPath></defs></svg>